<mxfile host="65bd71144e">
    <diagram id="XHk-bZ8t28PDqSV33KaL" name="Page-1">
        <mxGraphModel dx="1295" dy="330" grid="1" gridSize="10" guides="1" tooltips="1" connect="1" arrows="1" fold="1" page="1" pageScale="1" pageWidth="850" pageHeight="1100" math="0" shadow="0">
            <root>
                <mxCell id="0"/>
                <mxCell id="1" parent="0"/>
                <mxCell id="43" style="edgeStyle=none;html=1;" parent="1" source="38" target="40" edge="1">
                    <mxGeometry relative="1" as="geometry"/>
                </mxCell>
                <mxCell id="44" style="edgeStyle=orthogonalEdgeStyle;html=1;rounded=0;" parent="1" source="38" target="41" edge="1">
                    <mxGeometry relative="1" as="geometry">
                        <Array as="points">
                            <mxPoint x="60" y="240"/>
                            <mxPoint x="-100" y="240"/>
                        </Array>
                    </mxGeometry>
                </mxCell>
                <mxCell id="45" style="edgeStyle=orthogonalEdgeStyle;shape=connector;rounded=0;html=1;labelBackgroundColor=default;fontFamily=Helvetica;fontSize=11;fontColor=default;endArrow=classic;strokeColor=default;" parent="1" source="38" target="42" edge="1">
                    <mxGeometry relative="1" as="geometry">
                        <Array as="points">
                            <mxPoint x="60" y="240"/>
                            <mxPoint x="220" y="240"/>
                        </Array>
                    </mxGeometry>
                </mxCell>
                <mxCell id="38" value="Program Name&lt;br&gt;Here" style="rounded=0;whiteSpace=wrap;html=1;" parent="1" vertex="1">
                    <mxGeometry y="160" width="120" height="60" as="geometry"/>
                </mxCell>
                <mxCell id="40" value="Process" style="rounded=0;whiteSpace=wrap;html=1;" parent="1" vertex="1">
                    <mxGeometry y="280" width="120" height="60" as="geometry"/>
                </mxCell>
                <mxCell id="41" value="Input" style="rounded=0;whiteSpace=wrap;html=1;" parent="1" vertex="1">
                    <mxGeometry x="-160" y="280" width="120" height="60" as="geometry"/>
                </mxCell>
                <mxCell id="42" value="Output" style="rounded=0;whiteSpace=wrap;html=1;" parent="1" vertex="1">
                    <mxGeometry x="160" y="280" width="120" height="60" as="geometry"/>
                </mxCell>
            </root>
        </mxGraphModel>
    </diagram>
</mxfile>